<?xml version="1.0" standalone="no"?>
<!DOCTYPE svg PUBLIC "-//W3C//DTD SVG 1.1//EN" "http://www.w3.org/Graphics/SVG/1.1/DTD/svg11.dtd" >
<svg xmlns="http://www.w3.org/2000/svg">
<metadata>Generated by IcoMoon</metadata>
<defs>
<font id="icomoon" horiz-adv-x="1024">
<font-face units-per-em="1024" ascent="896" descent="-128" />
<missing-glyph horiz-adv-x="1024" />
<glyph unicode="&#x20;" horiz-adv-x="0" d="" />
<glyph unicode="&#xe008;" glyph-name="clipboard" horiz-adv-x="896" d="M48-128h800c27.808 0 48 20.192 48 48v896c0 27.808-20.192 48-48 48h-128c-8.832 0-16-7.168-16-16s7.168-16 16-16h128c10.016 0 16-5.984 16-16v-896c0-10.016-5.984-16-16-16h-800c-10.016 0-16 5.984-16 16v896c0 10.016 5.984 16 16 16h128c8.832 0 16 7.168 16 16s-7.168 16-16 16h-128c-27.808 0-48-20.192-48-48v-896c0-27.808 20.192-48 48-48zM176 736c8.832 0 16 7.168 16 16s-7.168 16-16 16h-64c-8.832 0-16-7.168-16-16v-768c0-8.832 7.168-16 16-16h672c8.832 0 16 7.168 16 16v768c0 8.832-7.168 16-16 16h-64c-8.832 0-16-7.168-16-16s7.168-16 16-16h48v-736h-640v736h48zM288 672h320c38.88 0 64 25.12 64 64v144c0 8.832-7.168 16-16 16h-416c-8.832 0-16-7.168-16-16v-144c0-38.88 25.12-64 64-64zM256 864h384v-128c0-21.248-10.784-32-32-32h-320c-21.216 0-32 10.752-32 32v128zM272 384h352c8.832 0 16 7.168 16 16s-7.168 16-16 16h-352c-8.832 0-16-7.168-16-16s7.168-16 16-16zM272 512h352c8.832 0 16 7.168 16 16s-7.168 16-16 16h-352c-8.832 0-16-7.168-16-16s7.168-16 16-16zM272 256h352c8.832 0 16 7.168 16 16s-7.168 16-16 16h-352c-8.832 0-16-7.168-16-16s7.168-16 16-16zM272 128h352c8.832 0 16 7.168 16 16s-7.168 16-16 16h-352c-8.832 0-16-7.168-16-16s7.168-16 16-16z" />
<glyph unicode="&#xe6bb;" glyph-name="rank-outline" d="M1025.001-107.319v-60.295h-1025.001v60.295h1025.001zM723.531 254.446h120.59v-301.47h60.295v361.765h-241.178v-361.765h60.295v301.47zM422.058 435.329h120.588v-482.353h60.295v542.648h-241.178v-542.648h60.295v482.353zM120.59 676.505h120.59v-723.531h60.295v783.823h-241.178v-783.823h60.293v723.531z" />
<glyph unicode="&#xe6e1;" glyph-name="ellipsis-outline" d="M120.59 527.653c-66.565 0-120.59-54.025-120.59-120.588s54.023-120.59 120.59-120.59 120.59 54.025 120.59 120.59-54.025 120.59-120.59 120.59zM120.59 346.771c-33.222 0-60.293 27.012-60.293 60.295s27.072 60.295 60.293 60.295 60.295-27.012 60.295-60.295-27.072-60.295-60.293-60.295zM512.5 527.653c-66.565 0-120.59-54.025-120.59-120.588s54.025-120.59 120.59-120.59 120.59 54.025 120.59 120.59-54.025 120.59-120.59 120.59zM512.5 346.771c-33.222 0-60.295 27.012-60.295 60.295s27.072 60.295 60.295 60.295 60.295-27.012 60.295-60.295-27.072-60.295-60.295-60.295zM904.411 527.653c-66.565 0-120.59-54.025-120.59-120.588s54.025-120.59 120.59-120.59 120.59 54.025 120.59 120.59-54.025 120.59-120.59 120.59zM904.411 346.771c-33.222 0-60.295 27.012-60.295 60.295s27.072 60.295 60.295 60.295 60.295-27.012 60.295-60.295-27.072-60.295-60.295-60.295z" />
<glyph unicode="&#xe6e2;" glyph-name="ellipsis" d="M241.178 407.066c0-66.565-54.025-120.59-120.59-120.59s-120.59 54.025-120.59 120.59 54.023 120.59 120.59 120.59 120.59-54.025 120.59-120.59zM512.5 527.653c-66.565 0-120.59-54.025-120.59-120.588s54.025-120.59 120.59-120.59 120.59 54.025 120.59 120.59-54.025 120.59-120.59 120.59zM904.411 527.653c-66.565 0-120.59-54.025-120.59-120.588s54.025-120.59 120.59-120.59 120.59 54.025 120.59 120.59-54.025 120.59-120.59 120.59z" />
<glyph unicode="&#xe739;" glyph-name="application" d="M0 889.419h422.058v-422.058h-422.058v422.058zM542.648 889.419v-422.058h422.060v422.058h-422.058zM0-75.288h422.058v422.060h-422.058v-422.058zM542.648-75.288h422.060v422.060h-422.058v-422.058z" />
<glyph unicode="&#xe900;" glyph-name="card-outline" d="M993.451 707.133h-961.902c-19.199 0-34.768-15.57-34.768-34.768v-590.893c0-19.188 15.57-34.768 34.768-34.768h961.902c19.199 0 34.768 15.58 34.768 34.768v590.893c-0.010 19.199-15.57 34.768-34.768 34.768zM993.451 81.472h-961.902v336.005h961.902v-336.005zM993.451 452.236h-961.902v69.516h961.902v-69.516zM993.451 556.508h-961.902v115.856h961.902v-115.856zM645.751 220.513h-266.52v-34.768h266.52v34.768zM715.308 150.977h-394.031v-34.748h394.031v34.748z" />
<glyph unicode="&#xe901;" glyph-name="shop-outline" d="M1027.112 568.429c0 0 0-92.25 0-127.387 0-42.681-8.579-70.868-31.067-97.303v-353.072c0-70.95-61.418-128.391-134.613-128.391h-695.77c-73.205 0-132.522 57.441-132.522 128.391l-0.974 353.072c-19.874 24.743-32.164 62.085-32.164 96.299 0 18.286 0.225 50.235 0.8 64.176l-0.8 64.217 186.734 320.989h653.602l186.775-320.989zM96.483-9.343c0-35.465 32.585-64.206 69.188-64.206h695.77c36.603 0 71.258 28.741 71.258 64.206v64.196h-836.217v-64.196zM96.483 119.048h836.217v195.202c-8.231-1.538-25.297-2.614-34.727-2.614-60.823 0-114.841 34.471-143.982 82.646-24.948-47.735-74.158-82.646-121.709-82.646-47.96 0-100.726 30.094-118.726 71.114-18.010-42.015-71.873-71.114-120.858-71.114-46.309 0-94.844 32.062-120.827 77.808-23.145-47.037-77.859-77.808-112.371-77.808-16.903 0-47.95-1.866-63.018 3.485v-196.072zM62.32 440.038c0-44.311 49.856-65.211 98.195-65.211 47.611 0 97.242 32.933 97.242 65.211h30.433c0-41.42 56.539-64.217 106.078-64.217 47.529 0 103.74 31.836 103.74 64.217h31.119c0-31.396 55.268-64.217 102.776-64.217 49.538 0 107.113 31.836 107.113 64.217h30.361c0-32.933 76.517-64.268 128.217-64.278 44.752-0.031 66.82 19.956 67.271 64.278v0 64.176h-902.605l0.061-64.176zM965.93 568.429h-1.076l-152.889 256.773h-596.715l-149.701-256.773h900.381z" />
<glyph unicode="&#xe902;" glyph-name="cart" d="M797.748 262.785c22.55 0 57.676 21.668 66.236 41.451l157.83 363.138c5.74 13.243 4.715 27.982-2.696 39.38-7.175 10.947-17.804 31.201-31.314 31.201h-760.243l-11.429 51.465c-7.76 35.086-42.497 62.566-79.058 62.566h-114.39c-12.813 0-23.186-10.424-23.186-23.278s6.201-33.733 19.004-33.733h114.031c14.924 0 34.932-5.074 38.007-19.004l147.887-658.594c-46.463-12.607-80.821-55.207-80.821-105.811 0-60.485 49.046-109.716 109.306-109.716 60.27 0 109.286 49.231 109.286 109.716 0 22.427-6.765 43.316-18.317 60.69h304.918c-11.551-17.374-18.307-38.253-18.307-60.69 0-60.485 49.046-109.716 109.276-109.716 60.291 0 109.317 49.231 109.317 109.716 0 60.506-49.026 109.716-109.317 109.716-7.893 0-9.594 10.066-16.995 8.466h-452.958l-22.212 133.035h456.145zM365.505 119.582l-0.195 1.148c0.338-0.708 0.502-1.199 0.195-1.148z" />
<glyph unicode="&#xe903;" glyph-name="cart-outline" d="M796.467 263.297c22.427 0 57.42 21.566 65.928 41.266l157.132 361.487c5.71 13.192 4.685 27.87-2.727 39.216-7.103 10.896-17.712 31.057-31.119 31.057h-756.82l-11.377 51.24c-7.739 34.922-42.301 62.289-78.7 62.289h-113.888c-12.751 0-23.083-10.363-23.083-23.176 0-12.803 6.181-33.589 18.921-33.589h113.519c14.873 0 34.778-5.043 37.843-18.911l147.231-655.601c-46.279-12.566-80.483-54.961-80.483-105.339 0-60.229 48.831-109.214 108.834-109.214 59.994 0 108.773 48.985 108.773 109.214 0 22.335-6.704 43.111-18.225 60.414h303.523c-11.48-17.302-18.214-38.079-18.214-60.414 0-60.229 48.801-109.214 108.773-109.214 60.004 0 108.824 48.985 108.824 109.214s-48.831 109.224-108.824 109.224c-7.831 0-9.542 10.014-16.923 8.415h-450.908l-22.089 132.44h454.075zM815.091 73.62h11.162c3.536 0 6.847 0.851 9.84 2.286 32.861-1.948 58.887-29.244 58.887-62.689 0-34.727-28.044-62.894-62.658-62.894-34.574 0-62.617 28.168-62.617 62.894-0.010 28.71 19.188 52.88 45.387 60.403zM247.784 679.56h718.977l-146.667-356.495c-1.025-2.326-0.205-3.003-4.705-3.003h-491.928l-75.676 359.499zM366.162 120.74l-0.205 1.189c0.358-0.728 0.513-1.24 0.205-1.189zM343.334 75.875c2.983-1.404 6.273-2.255 9.779-2.255h11.808c26.21-7.523 45.376-31.693 45.376-60.414 0-34.727-28.054-62.894-62.627-62.894-34.604 0-62.648 28.168-62.648 62.894 0.010 33.282 25.748 60.414 58.312 62.668z" />
<glyph unicode="&#xe904;" glyph-name="product" d="M409.826 443.082c-17.087 0-30.975-13.899-30.975-30.996 0-17.087 13.899-30.986 30.975-30.986 17.128 0 31.026 13.899 31.026 30.986 0 17.097-13.899 30.996-31.026 30.996zM972.9 617.22h-188.344l-5.432 62.699c1.712 3.351 2.758 7.114 2.758 11.111-0.010 109.409-89.001 198.389-198.42 198.389-34.584 0-67.118-8.928-95.458-24.559-24.702 10.649-50.912 16.308-78.166 16.308-105.514 0-191.808-82.851-197.825-186.867-2.070-3.619-3.331-7.719-3.331-12.177l-10.076-64.892h-146.503c-27.399-0.010-41.851-34.809-41.851-62.566v-646.109c0-25.932 22.018-44.752 52.347-44.752h902.533c27.388 0 49.62 22.233 49.62 49.599v644.716c0 27.347-14.514 59.102-41.851 59.102zM177.663-73.375h-104.632c-1.035 0-20.142-0.123-20.93 0v627.813c0.338 1.353 10.23 3.351 10.486 3.68l115.076-3.68v-627.813zM583.462 839.819c77.552 0 141.358-59.634 148.144-135.433-1.332-3.044-2.091-6.375-2.091-9.892l-7.739-77.274h-292.986l3.106 62.699c1.702 3.351 2.737 7.114 2.737 11.111 0 82.061 66.748 148.789 148.83 148.789zM258.28 671.667c1.702 3.351 2.758 7.093 2.758 11.111 0 82.051 66.748 148.779 148.799 148.779 10.465 0 20.705-1.168 30.719-3.249-30.791-32.041-50.902-74.313-54.683-121.186-2.234-3.721-3.577-7.995-3.577-12.628l4.664-77.274h-125.583l-3.095 54.448zM409.826 343.903c-37.597 0-68.194 30.586-68.194 68.173 0 37.597 30.596 68.194 68.194 68.194s68.224-30.596 68.224-68.194c0-37.577-30.627-68.173-68.224-68.173zM769.468 343.903c-37.608 0-68.194 30.586-68.194 68.173 0 37.597 30.586 68.194 68.194 68.194s68.214-30.596 68.214-68.194c0.010-37.577-30.607-68.173-68.214-68.173zM769.468 443.082c-17.087 0-30.996-13.899-30.996-30.996 0-17.087 13.91-30.986 30.996-30.986 17.108 0 30.996 13.899 30.996 30.986 0.010 17.097-13.889 30.996-30.996 30.996z" />
<glyph unicode="&#xe905;" glyph-name="message-outline" d="M512.5 884.294c-280.215 0-507.375-198.768-507.375-443.959 0-140.138 74.374-264.891 190.271-346.255v-224.536l222.282 134.87c30.75-5.094 62.382-8.026 94.823-8.026 280.215 0 507.375 198.768 507.375 443.959s-227.161 443.949-507.375 443.949zM512.5 59.803c-37.023 0-72.806 4.325-107.195 11.654l-149.281-89.749 1.999 147.098c-114.462 68.829-189.471 182.583-189.471 311.528 0 210.156 198.768 380.532 443.949 380.532 245.2 0 443.959-170.375 443.959-380.532 0-210.166-198.758-380.532-443.959-380.532zM285.995 503.762c-35.024 0-63.427-28.393-63.427-63.427 0-35.024 28.393-63.427 63.427-63.427 35.024 0 63.427 28.403 63.427 63.427-0.010 35.034-28.403 63.427-63.427 63.427zM521.561 503.762c-35.024 0-63.427-28.393-63.427-63.427 0-35.024 28.393-63.427 63.427-63.427s63.427 28.403 63.427 63.427c-0.010 35.034-28.393 63.427-63.427 63.427zM739.016 503.762c-35.024 0-63.427-28.393-63.427-63.427 0-35.024 28.403-63.427 63.427-63.427 35.014 0 63.427 28.403 63.427 63.427-0.010 35.034-28.413 63.427-63.427 63.427z" />
<glyph unicode="&#xe906;" glyph-name="product-outline" d="M972.675 617.363h-188.272l-5.422 62.668c1.722 3.351 2.768 7.103 2.768 11.111 0 109.337-88.97 198.277-198.318 198.277-34.574 0-67.087-8.928-95.417-24.559-24.702 10.649-50.892 16.308-78.136 16.308-105.452 0-191.706-82.81-197.723-186.775-2.060-3.619-3.331-7.729-3.331-12.177l-10.066-64.851h-146.421c-27.399 0-41.841-34.789-41.841-62.525v-645.771c0-25.922 22.006-44.731 52.316-44.731h902.073c27.368 0 49.589 22.233 49.589 49.579v644.377c0.020 27.327-14.473 59.071-41.8 59.071zM177.838-72.893h-104.581c-1.035 0-20.131-0.113-20.92 0v627.506c0.338 1.342 10.219 3.351 10.486 3.68l115.015-3.68v-627.506zM583.431 839.839c77.521 0 141.276-59.604 148.062-135.361-1.322-3.044-2.081-6.375-2.081-9.892l-7.749-77.233h-292.833l3.106 62.668c1.702 3.351 2.737 7.103 2.737 11.111 0 82.020 66.727 148.707 148.758 148.707zM261.16 682.891c0 82.010 66.717 148.707 148.717 148.707 10.465 0 20.705-1.168 30.699-3.249-30.781-32.031-50.881-74.272-54.653-121.124-2.234-3.721-3.577-7.985-3.577-12.617l4.654-77.233h-125.491l-3.095 54.417c1.692 3.331 2.747 7.073 2.747 11.101zM951.754-72.893h-732.076v627.506l38.735 3.68 693.341-3.68v-627.506zM409.877 344.179c37.587 0 68.183 30.586 68.183 68.143 0 37.587-30.596 68.163-68.183 68.163-37.577 0-68.163-30.576-68.163-68.163 0-37.556 30.586-68.143 68.163-68.143zM409.877 443.318c17.128 0 31.006-13.889 31.006-30.986 0-17.077-13.879-30.965-31.006-30.965-17.067 0-30.965 13.889-30.965 30.965 0 17.087 13.899 30.986 30.965 30.986zM769.335 344.179c37.597 0 68.183 30.586 68.183 68.143 0 37.587-30.586 68.163-68.183 68.163-37.577 0-68.143-30.576-68.143-68.163-0.010-37.556 30.566-68.143 68.143-68.143zM769.335 443.318c17.097 0 30.986-13.889 30.986-30.986 0-17.077-13.889-30.965-30.986-30.965-17.056 0-30.965 13.889-30.965 30.965-0.010 17.087 13.91 30.986 30.965 30.986z" />
<glyph unicode="&#xe907;" glyph-name="heart" d="M935.089 688.743c-116.242 115.184-302.119 117.587-422.525 9.225-120.438 108.362-306.251 105.959-422.557-9.225-119.829-118.644-119.829-310.992 0-429.7 34.241-33.921 354.042-350.454 354.042-350.454 37.893-37.541 99.169-37.541 137.030 0 0 0 350.166 346.643 354.042 350.454 119.861 118.708 119.861 311.056-0.032 429.7zM889.445 304.271l-354.042-350.454c-12.588-12.524-33.12-12.524-45.645 0l-354.042 350.454c-94.492 93.531-94.492 245.712 0 339.243 91.097 90.168 237.544 93.339 333.414 7.111l43.434-39.078 43.402 39.078c95.902 86.228 242.349 83.089 333.446-7.111 94.492-93.499 94.492-245.68 0.032-339.243zM296.385 617.121c8.873 0 16.016-7.175 16.016-16.016s-7.175-16.016-16.016-16.016h-0.032c-57.464 0-104.070-46.606-104.070-104.070v-0.032c0-8.841-7.175-16.016-16.016-16.016s-16.016 7.175-16.016 16.016v0c0 75.145 60.891 136.037 136.005 136.101 0.064 0 0.064 0.032 0.128 0.032z" />
<glyph unicode="&#xe908;" glyph-name="settings" d="M973.463 451.231l-98.144 19.667c-4.933 14.19-10.763 27.963-17.201 41.288l55.606 83.409c16.945 25.401 13.581 59.258-8.008 80.815l-61.628 61.628c-12.396 12.396-28.764 18.77-45.356 18.77-12.268 0-24.664-3.523-35.459-10.763l-83.409-55.574c-13.389 6.47-27.163 12.236-41.352 17.169l-19.667 98.176c-5.958 29.981-32.288 51.506-62.813 51.506h-87.125c-30.526 0-56.823-21.557-62.813-51.506l-19.667-98.176c-14.19-4.933-27.963-10.73-41.288-17.169l-83.377 55.574c-10.859 7.239-23.223 10.763-35.523 10.763-16.56 0-32.928-6.374-45.324-18.77l-61.596-61.628c-21.589-21.589-24.952-55.414-8.008-80.815l55.574-83.409c-6.47-13.357-12.236-27.13-17.169-41.32l-98.208-19.635c-29.949-5.99-51.506-32.288-51.506-62.813v-87.125c0-30.526 21.557-56.856 51.506-62.813l98.176-19.699c4.933-14.19 10.73-27.963 17.169-41.288l-55.542-83.409c-16.945-25.401-13.581-59.258 8.008-80.815l61.628-61.628c12.396-12.396 28.764-18.77 45.324-18.77 12.3 0 24.696 3.555 35.491 10.763l83.409 55.606c13.357-6.502 27.13-12.268 41.32-17.201l19.635-98.144c5.99-29.981 32.288-51.538 62.813-51.538h87.125c30.526 0 56.856 21.589 62.813 51.538l19.699 98.144c14.19 4.933 27.963 10.763 41.288 17.201l83.409-55.606c10.827-7.207 23.223-10.763 35.459-10.763 16.592 0 32.96 6.374 45.356 18.77l61.628 61.628c21.589 21.589 24.952 55.414 8.008 80.815l-55.606 83.409c6.502 13.389 12.268 27.163 17.201 41.352l98.144 19.635c29.949 5.926 51.538 32.288 51.538 62.813v87.125c0 30.526-21.589 56.823-51.538 62.813zM862.731 281.625c-22.262-4.452-40.488-20.34-47.919-41.801-4.132-11.82-8.937-23.287-14.318-34.402-9.962-20.468-8.264-44.62 4.324-63.486l55.606-83.409-61.628-61.628-83.409 55.606c-10.698 7.143-23.095 10.763-35.523 10.763-9.513 0-19.091-2.114-27.899-6.374-11.147-5.381-22.582-10.25-34.466-14.382-21.397-7.431-37.284-25.657-41.737-47.919l-19.699-98.208h-87.125l-19.635 98.208c-4.452 22.262-20.34 40.488-41.769 47.919-11.82 4.132-23.319 8.937-34.434 14.318-8.841 4.324-18.386 6.438-27.931 6.438-12.46 0-24.824-3.62-35.523-10.763l-83.409-55.606-61.628 61.628 55.574 83.409c12.588 18.898 14.222 43.050 4.388 63.422-5.381 11.147-10.218 22.582-14.35 34.466-7.431 21.397-25.689 37.284-47.919 41.737l-98.176 19.699-0.064 87.157 98.208 19.635c22.23 4.452 40.488 20.34 47.919 41.769 4.132 11.82 8.905 23.319 14.318 34.434 9.93 20.436 8.264 44.588-4.356 63.454l-55.542 83.409 61.596 61.628 83.409-55.574c10.698-7.143 23.095-10.763 35.523-10.763 9.513 0 19.059 2.114 27.899 6.374 11.115 5.381 22.582 10.218 34.434 14.35 21.429 7.431 37.316 25.689 41.769 47.919l19.667 98.176 87.125 0.032 19.635-98.208c4.452-22.23 20.34-40.488 41.801-47.919 11.82-4.132 23.287-8.905 34.402-14.318 8.873-4.292 18.386-6.406 27.963-6.406 12.46 0 24.824 3.62 35.523 10.763l83.409 55.574 61.628-61.628-55.606-83.409c-12.588-18.898-14.19-43.018-4.388-63.422 5.381-11.115 10.25-22.582 14.382-34.434 7.431-21.429 25.657-37.316 47.919-41.769l98.144-19.667 0.096-87.125-98.208-19.667zM512.5 569.074c-123.801 0-224.219-100.418-224.219-224.219 0-123.833 100.418-224.219 224.219-224.219s224.219 100.418 224.219 224.219c0 123.801-100.418 224.219-224.219 224.219zM512.5 148.631c-108.33 0-196.192 87.894-196.192 196.192 0 108.33 87.862 196.192 196.192 196.192 108.298 0 196.192-87.862 196.192-196.192 0-108.298-87.894-196.192-196.192-196.192zM512.5 472.98c-70.789 0-128.125-57.336-128.125-128.125 0-70.757 57.336-128.125 128.125-128.125 70.757 0 128.125 57.368 128.125 128.125s-57.368 128.125-128.125 128.125zM512.5 248.729c-53.044 0-96.094 43.050-96.094 96.094s43.050 96.094 96.094 96.094 96.094-43.050 96.094-96.094c0-53.044-43.050-96.094-96.094-96.094z" />
<glyph unicode="&#xe909;" glyph-name="eye" d="M1023.88 352.062c-0.32 1.345-0.128 2.787-0.641 4.1-0.192 0.545-0.673 0.833-0.865 1.345-0.32 0.769-0.256 1.634-0.673 2.37-92.891 177.806-295.104 305.194-508.433 305.194-213.36 0-415.542-127.196-508.497-304.97-0.416-0.737-0.352-1.602-0.673-2.37-0.224-0.513-0.673-0.801-0.865-1.345-0.513-1.313-0.32-2.755-0.641-4.1-0.577-2.402-1.121-4.709-1.121-7.175s0.577-4.741 1.121-7.175c0.32-1.345 0.128-2.787 0.641-4.1 0.192-0.545 0.673-0.833 0.865-1.345 0.32-0.769 0.256-1.634 0.673-2.37 92.923-177.806 295.136-305.194 508.497-305.194 213.328 0 415.542 127.196 508.433 304.97 0.448 0.737 0.384 1.602 0.673 2.37 0.192 0.513 0.673 0.801 0.865 1.345 0.513 1.313 0.32 2.755 0.641 4.1 0.545 2.434 1.121 4.741 1.121 7.175s-0.577 4.773-1.121 7.175zM513.237 89.021c-179.856 0-355.932 102.212-443.665 256.090 88.214 154.070 264.034 255.93 443.665 255.93 179.792 0 355.9-102.244 443.633-256.090-88.214-154.102-264.002-255.93-443.633-255.93zM513.237 473.044c8.841 0 15.952-7.143 15.952-16.016 0-8.809-7.143-15.984-15.952-15.984v-0.032c-52.98 0-96.062-43.082-96.062-95.998 0-8.841-7.175-16.016-15.984-16.016-8.841 0-16.016 7.175-16.016 16.016 0 70.629 57.24 127.869 127.869 127.997 0.064 0 0.128 0.032 0.192 0.032zM512.5 569.106c-123.865 0-224.219-100.386-224.219-224.219s100.386-224.219 224.219-224.219c123.801 0 224.219 100.418 224.219 224.219 0 123.865-100.418 224.219-224.219 224.219zM512.5 152.699c-105.992 0-192.188 86.196-192.188 192.188s86.196 192.188 192.188 192.188c105.992 0 192.188-86.196 192.188-192.188s-86.196-192.188-192.188-192.188z" />
<glyph unicode="&#xe90a;" glyph-name="bubble" d="M512.5 633.168c8.841 0 16.016-7.175 16.016-16.016s-7.207-16.016-16.016-16.016c-170.631 0-320.313-89.816-320.313-192.188 0-8.841-7.175-16.016-16.016-16.016s-16.016 7.175-16.016 16.016c0 121.527 161.342 224.219 352.344 224.219zM512.5 793.325c-283.060 0-512.5-172.104-512.5-384.375 0-132.193 89.015-248.755 224.475-317.942 0-0.865-0.256-1.441-0.256-2.37 0-57.432-42.89-119.252-61.756-151.7 0.032 0 0.064 0 0.064 0-1.505-3.523-2.37-7.399-2.37-11.467 0-16.016 12.973-29.020 29.020-29.020 3.011 0 8.296 0.801 8.168 0.448 100.098 16.4 194.398 108.362 216.307 135.012 31.999-4.709 64.991-7.335 98.849-7.335 282.996 0 512.5 172.104 512.5 384.375s-229.472 384.375-512.5 384.375zM512.5 88.637c-29.373 0-59.514 2.242-89.559 6.63-3.107 0.513-6.214 0.673-9.289 0.673-19.027 0-37.252-8.456-49.52-23.383-13.709-16.688-52.723-53.941-98.817-81.327 12.492 28.668 22.262 60.795 22.934 93.916 0.192 2.050 0.288 4.132 0.288 5.894 0 24.088-13.485 46.093-34.914 57.048-118.708 60.603-189.561 158.138-189.561 260.863 0 176.62 201.156 320.313 448.438 320.313 247.217 0 448.438-143.692 448.438-320.313s-201.188-320.313-448.438-320.313z" />
<glyph unicode="&#xe90b;" glyph-name="phone" d="M768.751 857.387h-512.5c-53.108 0-96.094-43.018-96.094-96.094v-832.813c0-53.108 43.018-96.094 96.094-96.094h512.5c53.044 0 96.094 43.050 96.094 96.094v832.813c0 53.108-43.050 96.094-96.094 96.094zM800.782-71.52c0-17.649-14.382-32.031-32.031-32.031h-512.5c-17.681 0-32.031 14.318-32.031 32.031v64.191h576.563v-64.191zM800.782 24.702h-576.563v640.497h576.563v-640.497zM800.782 697.231h-576.563v64.063c0 17.681 14.35 32.031 32.031 32.031h512.5c17.649 0 32.031-14.35 32.031-32.031v-64.063zM576.563 745.278c0-8.841-7.207-16.016-16.016-16.016h-96.094c-8.873 0-16.016 7.175-16.016 16.016v0c0 8.873 7.143 16.016 16.016 16.016h96.094c8.809 0 16.016-7.143 16.016-16.016v0zM544.532-55.376c0-8.809-7.207-16.016-16.016-16.016h-32.031c-8.841 0-16.016 7.207-16.016 16.016v0c0 8.873 7.175 16.016 16.016 16.016h32.031c8.809 0 16.016-7.143 16.016-16.016v0z" />
<glyph unicode="&#xe90c;" glyph-name="shop" d="M1005.782 498.637l-96.094 128.061c-3.748 5.029-8.2 9.385-12.813 13.549v153.077c0 35.363-28.7 64.063-64.063 64.063h-640.626c-35.395 0-64.063-28.7-64.063-64.063v-153.11c-4.613-4.132-9.065-8.456-12.813-13.453l-96.062-128.093c-12.428-16.528-19.251-36.996-19.251-57.688v-32.031c0-52.98 43.114-96.094 96.094-96.094v0-416.407c0-35.363 28.7-64.063 64.063-64.063h704.688c35.363 0 64.063 28.7 64.063 64.063v416.407c52.98 0 96.094 43.114 96.094 96.094v32.031c0 20.692-6.823 41.16-19.219 57.656zM832.813 793.325v-128.125h-640.626v128.125h640.626zM326.495 376.918h-134.179l128.125 224.219h70.116l-64.063-224.219zM423.902 601.137h72.583v-224.219h-136.645l64.063 224.219zM528.516 601.137h72.583l64.063-224.219h-136.645v224.219zM634.38 601.137h70.116l128.125-224.219h-134.179l-64.063 224.219zM64.063 408.949v32.031c0 6.951 2.242 13.677 6.406 19.219l96.094 128.125c6.054 8.072 15.535 12.813 25.625 12.813h91.353l-128.125-224.219h-59.322c-17.681 0-32.031 14.318-32.031 32.031zM640.626-103.551h-240.235v320.313h240.235v-320.313zM864.845-103.551h-192.188v320.313c0 17.713-14.382 32.031-32.031 32.031h-240.235c-17.681 0-32.031-14.318-32.031-32.031v-320.313h-208.203v416.407h704.688v-416.407zM960.938 408.949c0-17.713-14.318-32.031-32.031-32.031h-59.386l-128.125 224.219h91.417c10.058 0 19.571-4.741 25.593-12.813l96.094-128.125c4.196-5.541 6.438-12.268 6.438-19.219v-32.031z" />
<glyph unicode="&#xe90d;" glyph-name="wallet" d="M512.5 216.762c0 35.381 28.682 64.063 64.063 64.063s64.063-28.682 64.063-64.063c0-35.381-28.682-64.063-64.063-64.063s-64.063 28.682-64.063 64.063zM928.939 440.981c-0.032 0-0.032 0 0 0l-0.032 192.188v96.094c0 53.076-43.050 96.094-96.094 96.094h-656.641c-97.151 0-176.172-79.053-176.172-176.172v-640.626c0-97.119 79.021-176.172 176.172-176.172h576.563c97.119 0 176.172 79.053 176.172 176.172v48.047c0 0 0 0 0.032 0 128.061 96.126 128.061 288.249 0 384.375zM176.172 761.293h656.641c17.649 0 32.031-14.35 32.031-32.031v-198.081c-10.058 3.588-20.756 5.894-32.031 5.894h-0.032v160.156c0 17.713-14.35 32.031-32.031 32.031h-672.657c-17.681 0-32.031-14.318-32.031-32.031v-126.299c-19.763 20.212-31.999 47.759-31.999 78.252 0 61.916 50.161 112.109 112.109 112.109zM800.75 665.2h-672.657v32.031h672.657v-32.031zM800.75 633.168v-32.031h-672.657v32.031h672.657zM800.75 569.106v-32.031h-624.578c-17.297 0-33.441 4.228-48.047 11.211v20.82h672.625zM864.845 8.558c0-61.916-50.193-112.109-112.109-112.109h-576.563c-61.948 0-112.109 50.193-112.109 112.109v504.845c30.462-25.209 69.54-40.391 112.109-40.391h656.641c17.649 0 32.031-14.35 32.031-32.031v-64.063h-288.282c-88.47 0-160.156-71.686-160.156-160.156s71.718-160.156 160.156-160.156h288.282v-48.047zM905.749 120.668h-329.185c-52.98 0-96.094 43.114-96.094 96.094s43.114 96.094 96.094 96.094h288.282c19.763 0.256 39.366 9.834 51.314 25.753 3.331 4.484 5.926 9.513 8.008 14.766 0.288 0.705 0.801 1.249 1.057 1.986 23.030-30.205 35.715-67.234 35.715-106.568 0-49.264-19.891-94.973-55.19-128.125z" />
<glyph unicode="&#xe90e;" glyph-name="truck" d="M795.401 490.789c-5.958 8.905-15.952 14.254-26.65 14.254h-32.031c-17.713 0-32.031-14.318-32.031-32.031v-192.188c0-17.713 14.318-32.031 32.031-32.031h128.125c17.713 0 32.031 14.318 32.031 32.031v48.047c0 6.31-1.89 12.524-5.381 17.777l-96.094 144.141zM864.845 280.824h-128.125v192.188h32.031l96.094-144.141v-48.047zM1008.857 366.156l-128.125 192.188c-17.873 26.81-47.791 42.794-79.95 42.794h-128.125v64.063c0 52.98-43.114 96.094-96.094 96.094h-480.469c-52.98 0-96.094-43.114-96.094-96.094v-352.344c0-52.98 43.114-96.094 96.094-96.094v0-96.094c0-52.98 43.114-96.094 96.094-96.094h36.58c14.318-55.126 64.063-96.094 123.609-96.094 59.482 0 109.227 40.968 123.545 96.094h169.189c14.318-55.126 64.063-96.094 123.609-96.094 59.482 0 109.227 40.968 123.545 96.094h36.644c52.98 0 96.094 43.114 96.094 96.094v192.188c0 19.027-5.573 37.477-16.144 53.3zM96.094 280.824c-17.681 0-32.031 14.318-32.031 32.031v352.344c0 17.713 14.35 32.031 32.031 32.031h480.469c17.713 0 32.031-14.318 32.031-32.031v-352.344c0-17.713-14.318-32.031-32.031-32.031h-480.469zM352.376-7.457c-35.395 0-64.063 28.7-64.063 64.063s28.668 64.063 64.063 64.063c35.363 0 64.063-28.7 64.063-64.063s-28.732-64.063-64.063-64.063zM768.751-7.457c-35.395 0-64.063 28.7-64.063 64.063s28.668 64.063 64.063 64.063c35.363 0 64.063-28.7 64.063-64.063s-28.7-64.063-64.063-64.063zM960.938 120.668c0-17.713-14.318-32.031-32.031-32.031h-36.612c-14.318 55.126-64.063 96.094-123.545 96.094-59.546 0-109.291-40.968-123.609-96.094h-169.189c-14.318 55.126-64.063 96.094-123.545 96.094-59.546 0-109.291-40.968-123.609-96.094h-36.612c-17.681 0-32.031 14.318-32.031 32.031v96.094h416.407c52.98 0 96.094 43.114 96.094 96.094v224.219h128.125c10.698 0 20.692-5.349 26.65-14.254l128.125-192.188c3.491-5.253 5.381-11.467 5.381-17.777v-192.188z" />
<glyph unicode="&#xe90f;" glyph-name="search1" d="M622.276 235.112c-44.519-31.723-98.992-50.381-157.822-50.381-150.368 0-272.266 121.898-272.266 272.266s121.898 272.266 272.266 272.266c150.368 0 272.266-121.898 272.266-272.266 0-75.184-30.475-143.251-79.745-192.521l192.104-192.104c8.811-8.811 8.596-22.937-0.249-31.782-8.907-8.907-23.075-8.957-31.782-0.249l-194.771 194.771zM464.454 216.762c132.678 0 240.235 107.557 240.235 240.235s-107.557 240.235-240.235 240.235c-132.678 0-240.235-107.557-240.235-240.235s107.557-240.235 240.235-240.235v0z" />
<glyph unicode="&#xe910;" glyph-name="search2" d="M622.276 203.080c-44.519-31.723-98.992-50.381-157.822-50.381-150.368 0-272.266 121.898-272.266 272.266s121.898 272.266 272.266 272.266c150.368 0 272.266-121.898 272.266-272.266 0-58.83-18.659-113.303-50.381-157.822l178.889-178.889c17.623-17.623 17.477-45.823-0.006-63.306l-0.751-0.751c-17.438-17.438-45.826-17.486-63.306-0.006l-178.889 178.889zM464.454 216.762c114.987 0 208.203 93.216 208.203 208.203s-93.216 208.203-208.203 208.203c-114.987 0-208.203-93.216-208.203-208.203s93.216-208.203 208.203-208.203v0z" />
<glyph unicode="&#xe911;" glyph-name="eye2-outline" d="M512.5 569.106v0 0c288.282 0 416.407-224.219 416.407-224.219s-128.125-224.219-416.407-224.219c-288.282 0-416.407 224.219-416.407 224.219s128.125 224.219 416.407 224.219zM512.5 537.074c-256.25 0-377.971-192.188-377.971-192.188s121.721-192.188 377.971-192.188c256.25 0 377.971 192.188 377.971 192.188s-121.721 192.188-377.971 192.188v0 0zM512.5 216.762v0 0c-70.761 0-128.125 57.364-128.125 128.125s57.364 128.125 128.125 128.125c70.761 0 128.125-57.364 128.125-128.125s-57.364-128.125-128.125-128.125zM512.5 248.793c53.071 0 96.094 43.023 96.094 96.094s-43.023 96.094-96.094 96.094c-53.071 0-96.094-43.023-96.094-96.094s43.023-96.094 96.094-96.094v0 0zM512.5 312.856c17.69 0 32.031 14.341 32.031 32.031s-14.341 32.031-32.031 32.031c-17.69 0-32.031-14.341-32.031-32.031s14.341-32.031 32.031-32.031v0 0z" />
<glyph unicode="&#xe912;" glyph-name="eye2" d="M512.5 569.106v0c288.282 0 416.407-224.219 416.407-224.219s-128.125-224.219-416.407-224.219c-288.282 0-416.407 224.219-416.407 224.219s128.125 224.219 416.407 224.219zM512.5 216.762c70.761 0 128.125 57.364 128.125 128.125s-57.364 128.125-128.125 128.125c-70.761 0-128.125-57.364-128.125-128.125s57.364-128.125 128.125-128.125v0zM512.5 248.793v0c-53.071 0-96.094 43.023-96.094 96.094s43.023 96.094 96.094 96.094c53.071 0 96.094-43.023 96.094-96.094s-43.023-96.094-96.094-96.094zM512.5 312.856c17.69 0 32.031 14.341 32.031 32.031s-14.341 32.031-32.031 32.031c-17.69 0-32.031-14.341-32.031-32.031s14.341-32.031 32.031-32.031v0z" />
<glyph unicode="&#xe913;" glyph-name="star2-outline" d="M512.5 120.668l288.282-192.188-128.125 320.313 288.282 192.188h-320.313l-128.125 320.313-128.125-320.313h-320.313l288.282-192.188-128.125-320.313 288.282 192.188zM512.5 160.609l-217.813-145.644 102.5 246.64-230.625 147.344h240.233l105.705 272.266 105.705-272.266h240.235l-230.627-147.344 102.502-246.64-217.815 145.644z" />
<glyph unicode="&#xe914;" glyph-name="star2" d="M512.5 120.668l-288.282-192.188 128.125 320.313-288.282 192.188h320.313l128.125 320.313 128.125-320.313h320.313l-288.282-192.188 128.125-320.313z" />
<glyph unicode="&#xe915;" glyph-name="trash-outline" d="M672.657 665.2h128.125v-32.031h-544.532v32.031h128.125v32.031c0 35.628 28.644 64.063 63.979 64.063h160.324c35.283 0 63.979-28.682 63.979-64.063v-32.031zM256.25 601.137h544.532v-608.55c0-53.118-43.024-96.138-96.098-96.138h-352.336c-53.369 0-96.098 43.043-96.098 96.138v608.55zM288.282 569.106v-576.858c0-35.218 28.617-63.767 63.802-63.767h352.864c35.237 0 63.802 28.771 63.802 63.767v576.858h-480.469zM384.375 505.043v-512.5h32.031v512.5h-32.031zM512.5 505.043v-512.5h32.031v512.5h-32.031zM640.626 505.043v-512.5h32.031v512.5h-32.031zM448.532 729.262c-17.742 0-32.125-14.218-32.125-32.031v-32.031h224.219v32.031c0 17.69-14.026 32.031-32.125 32.031h-159.969z" />
<glyph unicode="&#xe916;" glyph-name="trash" d="M672.657 665.2h128.125v-32.031h-544.532v32.031h128.125v32.031c0 35.628 28.644 64.063 63.979 64.063h160.324c35.283 0 63.979-28.682 63.979-64.063v-32.031zM256.25 601.137h544.532v-608.55c0-53.118-43.024-96.138-96.098-96.138h-352.336c-53.369 0-96.098 43.043-96.098 96.138v608.55zM384.375 505.043v-512.5h32.031v512.5h-32.031zM512.5 505.043v-512.5h32.031v512.5h-32.031zM640.626 505.043v-512.5h32.031v512.5h-32.031zM448.532 729.262c-17.742 0-32.125-14.218-32.125-32.031v-32.031h224.219v32.031c0 17.69-14.026 32.031-32.125 32.031h-159.969z" />
<glyph unicode="&#xe917;" glyph-name="moneybag" d="M796.385 449.642c-13.315 16.134-27.665 31.795-41.574 46.966-36.736 40.139-71.504 78.084-74.589 110.567 3.485 8.118 19.721 28.239 30.658 41.769 38.263 47.437 81.683 101.209 44.454 137.914-26.711 26.322-92.835 70.53-235.361 70.53-107.963 0-186.889-23.493-235.187-70.397-37.546-36.336 5.781-89.985 44.024-137.309 10.988-13.591 27.255-33.743 30.883-42.025-4.028-30.012-39.791-65.999-74.415-100.808-18.235-18.337-37.084-37.289-53.505-57.195-87.822-106.508-129.457-207.347-127.315-308.259 5.689-268.734 256.25-308.874 405.101-308.874 268.314 0 406.597 104.427 410.974 310.411 2.163 102.439-38.458 202.766-124.148 306.712zM606.401 120.699c-13.899-26.148-39.494-43.921-70.336-49.261v-40.642c0-14.442-11.86-26.148-26.496-26.148-14.657 0-26.517 11.705-26.517 26.148v43.86c-20.101 5.966-39.042 17.169-55.176 33.199-10.301 10.27-10.23 26.824 0.154 36.982 10.445 10.117 27.214 10.076 37.526-0.174 17.2-17.128 39.083-25.154 60.024-22.058 15.16 2.245 27.491 10.383 33.856 22.345 12.085 22.714-0.297 39.637-52.89 72.519-6.14 3.854-11.767 7.38-16.482 10.619-38.007 26.24-59.808 54.212-64.708 83.127-3.515 20.746 1.866 41.564 15.611 60.199 10.639 14.463 25.113 25.061 42.076 31.314v20.131c0 14.442 11.86 26.138 26.517 26.138 14.637 0 26.496-11.695 26.496-26.138v-14.79c26.804-3.28 52.541-14.463 67.558-30.381 9.974-10.547 9.338-27.111-1.373-36.931-10.701-9.84-27.501-9.235-37.485 1.353-6.416 6.806-27.255 16.052-48.421 14.708-14.299-0.871-25.226-6.283-32.472-16.134-7.083-9.614-6.939-16.492-6.191-20.817 2.408-14.186 17.609-31.55 42.804-48.934 4.131-2.86 9.061-5.914 14.442-9.286 35.67-22.304 109.89-68.685 71.484-140.948z" />
<glyph unicode="&#xe918;" glyph-name="moneybag-outline" d="M796.395 449.509c-13.315 16.124-27.675 31.795-41.574 46.955-36.757 40.139-71.514 78.084-74.6 110.567 3.485 8.118 19.731 28.229 30.658 41.759 38.263 47.447 81.693 101.209 44.464 137.914-26.711 26.322-92.855 70.541-235.371 70.541-107.973 0-186.889-23.493-235.187-70.397-37.556-36.336 5.781-89.985 44.014-137.319 10.978-13.581 27.245-33.733 30.883-42.025-4.018-30.012-39.791-65.989-74.415-100.808-18.235-18.327-37.084-37.279-53.505-57.185-87.812-106.508-129.457-207.347-127.315-308.249 5.699-268.745 256.26-308.874 405.112-308.874 268.335 0 406.597 104.427 410.984 310.421 2.152 102.418-38.458 202.745-124.148 306.701zM509.559-115.339c-230 0-348.469 86.715-352.068 257.696-1.876 88.007 35.875 177.705 115.426 274.178 14.873 18.020 32.851 36.090 50.235 53.576 44.198 44.454 85.946 86.438 89.657 136.018 1.569 20.387-13.509 40.057-42.518 75.993-14.647 18.112-44.423 54.992-46.361 69.372 46.914 44.167 132.338 53.484 196.041 53.484 123.687 0 177.376-36.059 196.031-53.464-1.671-14.442-31.826-51.824-46.628-70.172-28.475-35.26-43.275-54.601-42.312-74.538 2.531-51.639 44.249-97.15 88.416-145.366 13.417-14.667 27.296-29.827 39.739-44.895 77.449-93.942 114.174-183.106 112.269-272.66-1.322-64.114-5.473-259.223-357.931-259.223zM534.917 261.503c-5.35 3.372-10.311 6.426-14.432 9.286-25.205 17.384-40.395 34.758-42.814 48.934-0.738 4.325-0.892 11.203 6.191 20.817 7.236 9.84 18.184 15.262 32.483 16.124 21.167 1.353 42.015-7.903 48.421-14.698 10.004-10.588 26.793-11.203 37.485-1.363 10.721 9.83 11.336 26.384 1.383 36.941-15.017 15.919-40.754 27.101-67.558 30.381v14.79c0 14.442-11.87 26.138-26.517 26.138-14.637 0-26.507-11.695-26.507-26.138v-20.131c-16.974-6.242-31.437-16.861-42.086-31.314-13.755-18.634-19.137-39.453-15.611-60.199 4.91-28.915 26.701-56.898 64.708-83.127 4.705-3.239 10.342-6.765 16.482-10.619 52.582-32.882 64.974-49.805 52.88-72.519-6.355-11.962-18.686-20.101-33.856-22.335-20.94-3.106-42.825 4.92-60.024 22.058-10.311 10.24-27.101 10.281-37.515 0.164-10.393-10.158-10.465-26.711-0.154-36.992 16.124-16.021 35.065-27.214 55.176-33.199v-43.86c0-14.422 11.87-26.128 26.507-26.128 14.647 0 26.517 11.705 26.517 26.128v40.642c30.842 5.34 56.416 23.135 70.326 49.261 38.418 72.273-35.803 118.654-71.484 140.958z" />
<glyph unicode="&#xe919;" glyph-name="piggy" d="M977.309 315.761c-7.166 79.253-45.040 155.422-108.477 210.864-37.056 32.406-79.958 57.744-126.049 76.157-5.988-8.605-12.844-16.715-20.602-24.125-10.304-9.806-21.876-18.206-34.523-24.922 13.369-4.19 26.176-8.999 38.506-14.494 12.513-5.622 17.359-20.226 10.414-31.653-6.097-10.086-19.487-14.086-30.517-9.077-83.95 37.719-177.71 30.618-218.816 24.697-12.118-1.698-23.691 5.622-26.527 16.927v0.113c-3.257 12.796 5.787 25.514 19.456 27.5 7.479 1.108 16.514 2.206 26.636 3.113-3.075 2.512-6.023 5.098-8.852 7.801-14.523 13.823-26.006 29.932-33.996 47.942-0.823 1.904-1.671 3.881-2.406 5.794-12.525-2.005-24.926-4.5-37.025-7.392-70.497 39.016-155.091 39.125-205.366 34.409-21.886-1.995-34.827-24.219-25.268-43.028l42.626-83.057c-47.35-39.238-83.134-87.271-103.213-140.819l-51.992 0.19c-17.446 0.13-31.651-13.404-31.651-30.002v-110.896c0-11.208 6.515-21.401 16.944-26.608l67.422-33.43c28.205-73.972 86.596-137.427 163.609-181.143v-98.188c0-19.316 16.518-35.027 36.825-35.027h94.476c14.621 0 27.881 8.306 33.778 21.021l23.666 51.735c20.423-2.394 41.138-3.607 62.388-3.607 33.469 0 65.972 3.029 97.21 8.705v-42.825c0-19.316 16.528-35.027 36.818-35.027h94.068c13.552 0 26.083 7.111 32.491 18.516 50.081 89.449 104.465 179.238 144.666 272.912 20.314 47.417 27.678 97.795 23.276 146.932v0zM303.642 340.376c-26.197 0-47.333 20.117-47.333 45.031 0 24.922 21.137 45.040 47.333 45.040 26.19 0 47.354-20.117 47.354-45.040 0-24.915-21.169-45.031-47.354-45.031v0zM563.423 572.956c14.403-5.397 30.178-8.4 46.687-8.4 8.112 0 16.001 0.7 23.583 2.097 32.18 5.724 60.059 23.029 78.687 47.143 15.477 20.002 24.598 44.73 24.598 71.552 0.144 66.753-56.8 120.8-126.872 120.8-70.167 0-126.988-54.046-126.988-120.8 0-17.324 3.8-33.722 10.748-48.638 13.365-29.024 38.506-52.034 69.556-63.751v0z" />
<glyph unicode="&#xe91a;" glyph-name="piggy-outline" d="M933.481 500.051c-12.194 0-24.066 1.355-35.033 3.226-35.55 81.938-108.649 176.65-238.265 214.136-48.647 14.065-96.842 18.709-139.617 18.709-79.874 0-140.649-16.323-148.585-18.259-52.389 29.421-112.584 37.098-160.778 37.098-16.711 0-31.936-0.968-44.969-2.193-21.936-1.936-34.904-24.517-25.356-43.549l42.711-84.196c-47.421-39.808-83.292-88.454-103.423-142.778l-52.389 0.193c-17.355 0-31.421-13.678-31.421-30.388v-112.391c0-11.419 6.516-21.742 16.969-27.033l67.551-33.808c28.259-75.033 86.777-139.359 163.941-183.683v-99.487c0.064-19.549 16.581-35.55 36.969-35.55h94.712c14.645 0 27.872 8.452 33.808 21.355l23.807 52.453c20.323-2.451 41.162-3.742 62.454-3.742 33.485 0 66.066 3.097 97.358 8.904v-43.42c0-19.549 16.645-35.55 36.904-35.55h94.261c13.741 0 26.195 7.162 32.646 18.709 50.131 90.777 104.713 181.683 145.037 276.717 17.291 40.776 24.71 83.745 23.936 126.325 58.84 62.002 94.648 151.876 94.648 151.876-25.227-25.677-57.486-33.679-87.874-33.679zM895.61 411.469l-12.194-12.71 0.387-17.613c0.646-38.453-6.194-75.033-20.517-108.842-31.097-73.486-72.196-146.456-111.874-216.975-9.807-17.484-19.807-34.969-29.227-52.195h-85.164v87.486l-50.646-9.419c-29.227-5.355-59.292-8.065-89.681-8.065-19.42 0-38.711 1.162-57.421 3.355l-31.291 3.742-34.904-77.099h-85.228v116.907l-21.549 12.387c-69.357 39.743-120.907 97.1-145.166 161.489l-5.936 15.741-15.033 7.484-60.84 30.582v91.681l70.711-0.193 10.452 28.129c17.098 46.194 48.453 89.357 90.713 124.778l26.13 21.936-15.42 30.453-33.936 66.841c7.807 0.387 15.549 0.646 23.162 0.646 38.13 0 93.358-5.484 139.876-31.55l14.71-8.194 16.259 3.936 2.258 0.517c43.291 10.774 90.454 16.452 136.327 16.452 45.615 0 88.583-5.678 127.617-16.969 127.682-36.84 186.909-134.908 210.846-190.071l9.226-21.162 22.839-4.065c13.872-2.451 27.485-3.742 40.581-3.871-10.645-15.678-22.71-31.485-36.065-45.548zM292.88 473.858c-31.936 0-57.743-24.904-57.743-55.614s25.807-55.614 57.743-55.614c32.001 0 57.808 24.904 57.808 55.614s-25.872 55.614-57.808 55.614z" />
<glyph unicode="&#xe91b;" glyph-name="location1" d="M512.565 288.96c105.992 0 192.188 86.228 192.188 192.188s-86.196 192.188-192.188 192.188c-105.992 0-192.188-86.196-192.188-192.188s86.196-192.188 192.188-192.188zM512.565 641.304c88.342 0 160.156-71.814 160.156-160.156s-71.814-160.156-160.156-160.156c-88.342 0-160.156 71.814-160.156 160.156s71.814 160.156 160.156 160.156zM512.5 857.387c-211.983 0-384.375-170.278-384.375-384.407 0-224.219 192.22-453.595 332.357-614.808 0.513-0.641 22.998-25.785 50.802-25.785 0.064 0 2.338 0 2.466 0 27.771 0 50.289 25.145 50.802 25.785 140.201 161.213 332.389 390.557 332.389 614.808 0 214.129-172.424 384.407-384.439 384.407zM516.248-99.803c-0.673-0.641-2.627-2.050-4.324-3.139-0.32 0.865-2.691 2.755-4.132 4.26-117.395 135.076-315.604 363.043-315.604 571.662 0 176.62 143.724 320.345 320.313 320.345 176.685 0 320.377-143.724 320.377-320.377 0-208.588-198.21-436.554-316.629-572.751z" />
<glyph unicode="&#xe938;" glyph-name="qrcode" d="M320.313 825.356h-256.25v-256.25h256.25v256.25zM384.375 889.419v0-384.375h-384.375v384.375h384.375zM128.125 761.293h128.125v-128.125h-128.125zM960.938 825.356h-256.25v-256.25h256.25v256.25zM1025.001 889.419v0-384.375h-384.375v384.375h384.375zM768.751 761.293h128.125v-128.125h-128.125zM320.313 184.73h-256.25v-256.25h256.25v256.25zM384.375 248.793v0-384.375h-384.375v384.375h384.375zM128.125 120.668h128.125v-128.125h-128.125zM448.438 889.419h64.063v-64.063h-64.063zM512.5 825.356h64.063v-64.063h-64.063zM448.438 761.293h64.063v-64.063h-64.063zM512.5 697.231h64.063v-64.063h-64.063zM448.438 633.168h64.063v-64.063h-64.063zM512.5 569.106h64.063v-64.063h-64.063zM448.438 505.043h64.063v-64.063h-64.063zM448.438 376.918h64.063v-64.063h-64.063zM512.5 312.856h64.063v-64.063h-64.063zM448.438 248.793h64.063v-64.063h-64.063zM512.5 184.73h64.063v-64.063h-64.063zM448.438 120.668h64.063v-64.063h-64.063zM512.5 56.605h64.063v-64.063h-64.063zM448.438-7.457h64.063v-64.063h-64.063zM512.5-71.52h64.063v-64.063h-64.063zM960.938 376.918h64.063v-64.063h-64.063zM64.063 376.918h64.063v-64.063h-64.063zM128.125 440.981h64.063v-64.063h-64.063zM0 440.981h64.063v-64.063h-64.063zM256.25 440.981h64.063v-64.063h-64.063zM320.313 376.918h64.063v-64.063h-64.063zM384.375 440.981h64.063v-64.063h-64.063zM576.563 376.918h64.063v-64.063h-64.063zM640.626 440.981h64.063v-64.063h-64.063zM704.688 376.918h64.063v-64.063h-64.063zM768.751 440.981h64.063v-64.063h-64.063zM832.813 376.918h64.063v-64.063h-64.063zM896.876 440.981h64.063v-64.063h-64.063zM960.938 248.793h64.063v-64.063h-64.063zM576.563 248.793h64.063v-64.063h-64.063zM640.626 312.856h64.063v-64.063h-64.063zM704.688 248.793h64.063v-64.063h-64.063zM832.813 248.793h64.063v-64.063h-64.063zM896.876 312.856h64.063v-64.063h-64.063zM960.938 120.668h64.063v-64.063h-64.063zM576.563 120.668h64.063v-64.063h-64.063zM640.626 184.73h64.063v-64.063h-64.063zM768.751 184.73h64.063v-64.063h-64.063zM832.813 120.668h64.063v-64.063h-64.063zM896.876 184.73h64.063v-64.063h-64.063zM960.938-7.457h64.063v-64.063h-64.063zM640.626 56.605h64.063v-64.063h-64.063zM704.688-7.457h64.063v-64.063h-64.063zM768.751 56.605h64.063v-64.063h-64.063zM832.813-7.457h64.063v-64.063h-64.063zM640.626-71.52h64.063v-64.063h-64.063zM768.751-71.52h64.063v-64.063h-64.063zM896.876-71.52h64.063v-64.063h-64.063z" />
<glyph unicode="&#xf119;" glyph-name="ion-card" d="M840.821 697.231c32.031 0 56.055-24.023 56.055-56.055v0-528.516c0-32.031-24.023-56.055-56.055-56.055h-784.766c-32.031 0-56.055 24.023-56.055 56.055v0 0 528.516c0 32.031 24.023 56.055 56.055 56.055h784.766zM90.088 633.168c-14.014 0-24.023-10.010-26.025-24.023v-40.039h768.751v40.039c-2.002 14.014-12.012 24.023-26.025 24.023h-716.7zM806.788 120.668c14.014 0 24.023 10.010 26.025 24.023v232.227h-768.751v-232.227c2.002-14.014 12.012-24.023 26.025-24.023h716.7zM128.125 248.793v32.031h384.375v-32.031h-384.375zM128.125 184.73v32.031h192.188v-32.031h-192.188zM640.626 184.73v96.094h128.125v-96.094h-128.125z" />
<glyph unicode="&#xf166;" glyph-name="sort" horiz-adv-x="863" d="M828.809 683.217c20.020 0 34.033-16.016 34.033-36.035v-32.031c0-20.020-14.014-34.033-34.033-34.033h-640.626c-20.020 0-34.033 14.014-34.033 34.033v32.031c0 20.020 14.014 36.035 34.033 36.035h640.626zM828.809 426.967c20.020 0 34.033-14.014 34.033-34.033v-32.031c0-20.020-14.014-34.033-34.033-34.033h-640.626c-20.020 0-34.033 14.014-34.033 34.033v32.031c0 20.020 14.014 34.033 34.033 34.033h640.626zM828.809 172.719c20.020 0 34.033-14.014 34.033-34.033v-32.031c0-20.020-14.014-36.035-34.033-36.035h-640.626c-20.020 0-34.033 16.016-34.033 36.035v32.031c0 20.020 14.014 34.033 34.033 34.033h640.626zM0 631.166c0 34.033 18.018 52.051 52.051 52.051s50.049-18.018 50.049-52.051-16.016-50.049-50.049-50.049-52.051 16.016-52.051 50.049zM0 386.928c0 34.033 18.018 52.051 52.051 52.051s50.049-18.018 50.049-52.051-16.016-50.049-50.049-50.049-52.051 16.016-52.051 50.049zM0 122.67c0 34.033 18.018 50.049 52.051 50.049s50.049-16.016 50.049-50.049-16.016-52.051-50.049-52.051-52.051 18.018-52.051 52.051z" />
<glyph unicode="&#xf20f;" glyph-name="minus-round" horiz-adv-x="769" d="M706.69 440.981c34.033 0 62.061-28.027 62.061-64.063s-28.027-64.063-62.061-64.063h-644.63c-34.033 0-62.061 28.027-62.061 64.063s28.027 64.063 62.061 64.063h644.63z" />
<glyph unicode="&#xf21b;" glyph-name="record" horiz-adv-x="833" d="M416.407-39.489c-230.225 0-416.407 186.182-416.407 416.407s186.182 416.407 416.407 416.407 416.407-186.182 416.407-416.407-186.182-416.407-416.407-416.407z" />
<glyph unicode="&#xf21f;" glyph-name="plus-round" horiz-adv-x="769" d="M706.69 440.981c34.033 0 62.061-28.027 62.061-64.063s-28.027-64.063-62.061-64.063h-258.252v-258.252c0-34.033-28.027-62.061-64.063-62.061s-64.063 28.027-64.063 62.061v258.252h-258.252c-34.033 0-62.061 28.027-62.061 64.063s28.027 64.063 62.061 64.063h258.252v258.252c0 34.033 28.027 62.061 64.063 62.061s64.063-28.027 64.063-62.061v-258.252h258.252z" />
<glyph unicode="&#xf344;" glyph-name="podium" d="M0-39.489v384.375h256.25v-384.375h-256.25zM320.313-39.489v576.563h256.25v-576.563h-256.25zM640.626-39.489v256.25h256.25v-256.25h-256.25z" />
<glyph unicode="&#xf35a;" glyph-name="clock" horiz-adv-x="857" d="M856.837 639.174l-56.055-66.065-196.192 164.16 56.055 66.065zM250.244 739.272l-194.19-166.162-56.055 66.065 194.19 166.162zM450.44 543.080v0-222.217l170.166-100.098-32.031-54.053-202.197 122.119v254.248h64.063zM428.418 713.247c212.207 0 386.377-172.168 386.377-382.373s-174.17-382.373-386.377-382.373c-214.209 0-386.377 172.168-386.377 382.373s172.168 382.373 386.377 382.373zM428.418 32.582c164.16 0 300.293 132.129 300.293 298.291 0 164.16-136.133 298.291-300.293 298.291s-300.293-134.131-300.293-298.291 136.133-298.291 300.293-298.291z" />
<glyph unicode="&#xf35d;" glyph-name="arrow-down2" horiz-adv-x="685" d="M384.375 719.252v-520.508l240.235 240.235 60.059-62.061-342.334-342.334-342.334 342.334 60.059 60.059 240.235-238.233v520.508h84.082z" />
<glyph unicode="&#xf35f;" glyph-name="arrow-dropdown" horiz-adv-x="513" d="M0 505.043h512.5l-256.25-256.25z" />
<glyph unicode="&#xf361;" glyph-name="arrow-dropleft" horiz-adv-x="256" d="M256.25 633.168v-512.5l-256.25 256.25z" />
<glyph unicode="&#xf363;" glyph-name="arrow-dropright" horiz-adv-x="256" d="M0 633.168l256.25-256.25-256.25-256.25v512.5z" />
<glyph unicode="&#xf365;" glyph-name="arrow-dropup" horiz-adv-x="513" d="M0 248.793l256.25 256.25 256.25-256.25h-512.5z" />
<glyph unicode="&#xf366;" glyph-name="arrow-up2" horiz-adv-x="685" d="M384.375 34.584h-84.082v520.508l-240.235-238.233-60.059 60.059 342.334 342.334 342.334-342.334-60.059-62.061-240.235 240.235v-520.508z" />
<glyph unicode="&#xf396;" glyph-name="more-horizontal" horiz-adv-x="641" d="M80.078 456.996c44.043 0 80.078-36.035 80.078-80.078s-36.035-80.078-80.078-80.078-80.078 36.035-80.078 80.078 36.035 80.078 80.078 80.078zM560.547 456.996c44.043 0 80.078-36.035 80.078-80.078s-36.035-80.078-80.078-80.078-80.078 36.035-80.078 80.078 36.035 80.078 80.078 80.078zM320.313 456.996c44.043 0 80.078-36.035 80.078-80.078s-36.035-80.078-80.078-80.078-80.078 36.035-80.078 80.078 36.035 80.078 80.078 80.078z" />
<glyph unicode="&#xf397;" glyph-name="more-vertical" horiz-adv-x="160" d="M160.156 617.153c0-44.043-36.035-80.078-80.078-80.078s-80.078 36.035-80.078 80.078 36.035 80.078 80.078 80.078 80.078-36.035 80.078-80.078zM160.156 136.683c0-44.043-36.035-80.078-80.078-80.078s-80.078 36.035-80.078 80.078 36.035 80.078 80.078 80.078 80.078-36.035 80.078-80.078zM160.156 376.918c0-44.043-36.035-80.078-80.078-80.078s-80.078 36.035-80.078 80.078 36.035 80.078 80.078 80.078 80.078-36.035 80.078-80.078z" />
<glyph unicode="&#xf3a0;" glyph-name="person" horiz-adv-x="769" d="M384.375 376.918c-106.104 0-192.188 86.084-192.188 192.188s86.084 192.188 192.188 192.188 192.188-86.084 192.188-192.188-86.084-192.188-192.188-192.188zM384.375 280.824c128.125 0 384.375-64.063 384.375-192.188v-96.094h-768.751v96.094c0 128.125 256.25 192.188 384.375 192.188z" />
<glyph unicode="&#xf3cf;" glyph-name="arrow-back" horiz-adv-x="384" d="M384.375 633.168l-254.248-256.25 254.248-256.25-64.063-64.063-320.313 320.313 320.313 320.313z" />
<glyph unicode="&#xf3d0;" glyph-name="arrow-down" horiz-adv-x="641" d="M602.588 569.106l38.037-42.041-320.313-342.334-320.313 342.334 38.037 42.041 282.276-300.293z" />
<glyph unicode="&#xf3d1;" glyph-name="arrow-forward" horiz-adv-x="384" d="M0 633.168l64.063 64.063 320.313-320.313-320.313-320.313-64.063 64.063 254.248 256.25z" />
<glyph unicode="&#xf3d2;" glyph-name="arrow-left" horiz-adv-x="384" d="M384.375 659.194l-300.293-282.276 300.293-282.276-42.041-38.037-342.334 320.313 342.334 320.313z" />
<glyph unicode="&#xf3d3;" glyph-name="arrow-right" horiz-adv-x="384" d="M0 659.194l42.041 38.037 342.334-320.313-342.334-320.313-42.041 38.037 300.293 282.276z" />
<glyph unicode="&#xf3d8;" glyph-name="arrow-up" horiz-adv-x="641" d="M602.588 184.73l-282.276 300.293-282.276-300.293-38.037 42.041 320.313 342.334 320.313-342.334z" />
<glyph unicode="&#xf3f7;" glyph-name="cart1-outline" horiz-adv-x="768" d="M192 70.4c26 0 48-22 48-48s-22-48-48-48-48 22-48 48 22 48 48 48zM192 6.4c8 0 16 8 16 16s-8 16-16 16-16-8-16-16 8-16 16-16zM640 70.4c26 0 48-22 48-48s-22-48-48-48-48 22-48 48 22 48 48 48zM640 6.4c8 0 16 8 16 16s-8 16-16 16-16-8-16-16 8-16 16-16zM768 614.4l-32-256-542-96 10-60c14-68 42-68 52-68h480v-32h-480c-22 0-42 10-56 28-12 16-22 38-26 66l-86 468c-4 16-6 24-14 32-12 10-36 14-74 14v32c46 0 76-8 94-22 14-12 20-28 24-42zM710 386.4l22 198-608 62 64-352z" />
<glyph unicode="&#xf3f8;" glyph-name="cart1" horiz-adv-x="768" d="M192 70.4c26 0 48-22 48-48s-22-48-48-48-48 22-48 48 22 48 48 48zM640 70.4c26 0 48-22 48-48s-22-48-48-48-48 22-48 48 22 48 48 48zM768 614.4l-32-256-542-96 10-60c14-68 42-68 52-68h480v-32h-480c-22 0-42 10-56 28-12 16-22 38-26 66l-86 468c-4 16-6 24-14 32-12 10-36 14-74 14v32c46 0 76-8 94-22 14-12 20-28 24-42z" />
<glyph unicode="&#xf3f9;" glyph-name="chatboxes-outline" horiz-adv-x="833" d="M32.031 761.293v-384.375h192.188v-32.031h-224.219v448.438h576.563v-224.219h-32.031v192.188h-512.5zM256.25 537.074h576.563v-448.438h-96.094v-128.125h-26.025l-128.125 128.125h-326.319v448.438zM800.782 120.668v384.375h-512.5v-384.375h306.299l110.108-110.108v110.108h96.094z" />
<glyph unicode="&#xf3fa;" glyph-name="chatboxes" horiz-adv-x="833" d="M576.563 793.325v-224.219h-352.344v-224.219h-224.219v448.438h576.563zM256.25 537.074h576.563v-448.438h-96.094v-128.125h-26.025l-128.125 128.125h-326.319v448.438z" />
<glyph unicode="&#xf3fd;" glyph-name="checkmark-empty" horiz-adv-x="414" d="M148.145 228.773c-4.004-4.004-12.012-8.008-18.018-8.008s-14.014 4.004-18.018 8.008l-112.109 112.109 36.035 36.035 94.092-94.092 250.244 252.246 34.033-36.035z" />
<glyph unicode="&#xf3fe;" glyph-name="checkmark-outline" horiz-adv-x="833" d="M584.571 535.073l36.035-36.035-268.262-270.264c-4.004-4.004-12.012-8.008-18.018-8.008s-14.014 4.004-18.018 8.008l-112.109 112.109 36.035 36.035 94.092-94.092zM416.407 793.325c230.225 0 416.407-186.182 416.407-416.407s-186.182-416.407-416.407-416.407-416.407 186.182-416.407 416.407 186.182 416.407 416.407 416.407zM416.407-5.455c210.205 0 382.373 172.168 382.373 382.373s-172.168 382.373-382.373 382.373-382.373-172.168-382.373-382.373 172.168-382.373 382.373-382.373z" />
<glyph unicode="&#xf3ff;" glyph-name="checkmark" horiz-adv-x="833" d="M416.407 793.325c230.225 0 416.407-186.182 416.407-416.407s-186.182-416.407-416.407-416.407-416.407 186.182-416.407 416.407 186.182 416.407 416.407 416.407zM352.344 228.773l268.262 270.264-36.035 36.035-250.244-252.246-94.092 94.092-36.035-36.035 112.109-112.109c4.004-4.004 12.012-8.008 18.018-8.008s14.014 4.004 18.018 8.008z" />
<glyph unicode="&#xf404;" glyph-name="close-empty" horiz-adv-x="384" d="M360.352 569.106l24.023-24.023-168.164-168.164 168.164-168.164-24.023-24.023-168.164 168.164-168.164-168.164-24.023 24.023 168.164 168.164-168.164 168.164 24.023 24.023 168.164-168.164z" />
<glyph unicode="&#xf405;" glyph-name="close-outline" horiz-adv-x="833" d="M710.694 671.205c162.158-162.158 162.158-426.416 0-588.575s-426.416-162.158-588.575 0-162.158 426.416 0 588.575 426.416 162.158 588.575 0zM686.671 106.654c148.145 148.145 148.145 392.383 0 540.528s-392.383 148.145-540.528 0-148.145-392.383 0-540.528 392.383-148.145 540.528 0zM584.571 569.106l24.023-24.023-168.164-168.164 168.164-168.164-24.023-24.023-168.164 168.164-168.164-168.164-24.023 24.023 168.164 168.164-168.164 168.164 24.023 24.023 168.164-168.164z" />
<glyph unicode="&#xf406;" glyph-name="close" horiz-adv-x="833" d="M710.694 671.205c162.158-162.158 162.158-426.416 0-588.575s-426.416-162.158-588.575 0-162.158 426.416 0 588.575 426.416 162.158 588.575 0zM608.594 208.754l-168.164 168.164 168.164 168.164-24.023 24.023-168.164-168.164-168.164 168.164-24.023-24.023 168.164-168.164-168.164-168.164 24.023-24.023 168.164 168.164 168.164-168.164z" />
<glyph unicode="&#xf419;" glyph-name="contact-outline" horiz-adv-x="833" d="M416.407 793.325c230.225 0 416.407-186.182 416.407-416.407s-186.182-416.407-416.407-416.407-416.407 186.182-416.407 416.407 186.182 416.407 416.407 416.407zM416.407 759.291c-210.205 0-382.373-172.168-382.373-382.373 0-94.092 34.033-178.174 90.088-244.239 36.035 16.016 124.121 48.047 180.176 64.063 4.004 2.002 6.006 0 6.006 20.020 0 22.022-2.002 36.035-8.008 48.047-8.008 16.016-14.014 40.039-18.018 62.061-8.008 10.010-20.020 30.029-28.027 66.065-6.006 32.031-2.002 44.043 2.002 56.055v4.004c2.002 8.008 0 46.045-6.006 76.074-4.004 20.020 2.002 68.066 30.029 104.102 18.018 24.023 54.053 52.051 116.113 56.055h36.035c64.063-4.004 98.096-32.031 116.113-56.055 28.027-36.035 34.033-84.082 30.029-104.102-6.006-30.029-8.008-68.066-6.006-76.074 0 0 2.002-2.002 2.002-4.004 4.004-12.012 6.006-24.023 0-56.055-8.008-36.035-20.020-54.053-28.027-64.063-4.004-22.022-10.010-48.047-18.018-64.063-6.006-14.014-12.012-30.029-12.012-46.045 0-20.020 0-20.020 4.004-22.022 54.053-16.016 146.143-48.047 186.182-64.063 56.055 66.065 90.088 152.149 90.088 244.239 0 210.205-172.168 382.373-382.373 382.373z" />
<glyph unicode="&#xf41a;" glyph-name="contact" horiz-adv-x="833" d="M416.407 793.325c230.225 0 416.407-186.182 416.407-416.407s-186.182-416.407-416.407-416.407-416.407 186.182-416.407 416.407 186.182 416.407 416.407 416.407zM416.407-5.455c118.115 0 222.217 54.053 292.285 138.135-40.039 16.016-132.129 48.047-186.182 64.063-4.004 2.002-6.006 2.002-6.006 22.022 0 16.016 8.008 32.031 14.014 46.045 8.008 16.016 14.014 42.041 18.018 64.063 8.008 10.010 20.020 28.027 28.027 64.063 6.006 32.031 4.004 44.043 0 56.055 0 0-2.002 2.002-2.002 4.004-2.002 8.008 0 46.045 6.006 76.074 4.004 20.020-2.002 68.066-30.029 104.102-18.018 24.023-52.051 52.051-116.113 56.055h-36.035c-62.061-4.004-98.096-32.031-116.113-56.055-28.027-36.035-34.033-84.082-30.029-104.102 6.006-30.029 8.008-68.066 6.006-76.074v-4.004c-4.004-12.012-8.008-24.023-2.002-56.055 8.008-36.035 20.020-56.055 28.027-66.065 4.004-22.022 10.010-46.045 18.018-62.061 6.006-12.012 8.008-26.025 8.008-48.047 0-20.020-2.002-18.018-6.006-20.020-56.055-16.016-144.141-48.047-180.176-64.063 70.068-84.082 174.17-138.135 292.285-138.135z" />
<glyph unicode="&#xf422;" glyph-name="email-outline" horiz-adv-x="769" d="M0 633.168h768.751v-512.5h-768.751v512.5zM384.375 352.895l326.319 248.242h-652.637zM32.031 152.699h704.688v428.418l-230.225-176.172 136.133-154.151-4.004-4.004-158.154 140.137-96.094-74.072-96.094 74.072-158.154-140.137-4.004 4.004 136.133 154.151-230.225 176.172v-428.418z" />
<glyph unicode="&#xf423;" glyph-name="email" horiz-adv-x="769" d="M768.751 120.668h-768.751v484.473l262.256-200.196-136.133-154.151 4.004-4.004 158.154 140.137 96.094-74.072 96.094 74.072 158.154-140.137 4.004 4.004-136.133 154.151 262.256 200.196v-484.473zM752.735 633.168l-368.36-280.274-368.36 280.274h736.719z" />
<glyph unicode="&#xf43c;" glyph-name="gear-outline" horiz-adv-x="769" d="M386.377 569.106c52.051 0 100.098-20.020 136.133-56.055s56.055-84.082 56.055-136.133-20.020-100.098-56.055-136.133-84.082-56.055-136.133-56.055-100.098 20.020-136.133 56.055-56.055 84.082-56.055 136.133 20.020 100.098 56.055 136.133 84.082 56.055 136.133 56.055zM386.377 216.762c88.086 0 160.156 72.070 160.156 160.156s-72.070 160.156-160.156 160.156-160.156-72.070-160.156-160.156 72.070-160.156 160.156-160.156zM276.27 723.256c-20.020-6.006-40.039-14.014-60.059-24.023 4.004-16.016 2.002-32.031 0-48.047-4.004-26.025-16.016-50.049-36.035-70.068-24.023-24.023-58.057-38.037-92.090-38.037-8.008 0-18.018 0-26.025 2.002-10.010-20.020-18.018-40.039-24.023-60.059 14.014-8.008 24.023-20.020 34.033-34.033 16.016-22.022 24.023-48.047 24.023-74.072s-8.008-52.051-24.023-74.072c-10.010-14.014-20.020-26.025-34.033-34.033 6.006-20.020 14.014-40.039 24.023-60.059 8.008 2.002 18.018 2.002 26.025 2.002 34.033 0 68.066-14.014 92.090-38.037 20.020-20.020 32.031-44.043 36.035-70.068 2.002-16.016 4.004-32.031 0-48.047 20.020-10.010 40.039-18.018 60.059-24.023 8.008 14.014 20.020 24.023 34.033 34.033 22.022 16.016 48.047 24.023 74.072 24.023s52.051-8.008 74.072-24.023c14.014-10.010 26.025-20.020 34.033-34.033 20.020 6.006 40.039 14.014 60.059 24.023-4.004 16.016-2.002 32.031 0 48.047 4.004 26.025 16.016 50.049 36.035 70.068 24.023 24.023 58.057 38.037 92.090 38.037 8.008 0 18.018 0 26.025-2.002 10.010 20.020 18.018 40.039 24.023 60.059-14.014 8.008-24.023 20.020-34.033 34.033-16.016 22.022-24.023 48.047-24.023 74.072s8.008 52.051 24.023 74.072c10.010 14.014 20.020 26.025 34.033 34.033-6.006 20.020-14.014 40.039-24.023 60.059-8.008-2.002-18.018-2.002-26.025-2.002-34.033 0-68.066 14.014-92.090 38.037-20.020 20.020-32.031 44.043-36.035 70.068-2.002 16.016-4.004 32.031 0 48.047-20.020 10.010-40.039 18.018-60.059 24.023-8.008-14.014-20.020-24.023-34.033-34.033-22.022-16.016-48.047-24.023-74.072-24.023s-52.051 8.008-74.072 24.023c-14.014 10.010-26.025 20.020-34.033 34.033zM476.465 761.293v0c40.039-10.010 80.078-26.025 114.111-48.047-16.016-36.035-10.010-80.078 20.020-110.108 20.020-20.020 44.043-28.027 70.068-28.027 14.014 0 28.027 2.002 40.039 8.008 22.022-34.033 38.037-74.072 48.047-114.111-38.037-14.014-64.063-50.049-64.063-92.090s28.027-78.076 64.063-92.090c-10.010-40.039-26.025-80.078-48.047-114.111-12.012 6.006-26.025 8.008-40.039 8.008-26.025 0-50.049-8.008-70.068-28.027-30.029-30.029-36.035-74.072-20.020-110.108-34.033-22.022-74.072-38.037-114.111-48.047-14.014 36.035-50.049 64.063-92.090 64.063s-78.076-28.027-92.090-64.063c-40.039 10.010-80.078 26.025-114.111 48.047 16.016 36.035 10.010 80.078-20.020 110.108-20.020 20.020-44.043 28.027-70.068 28.027-14.014 0-28.027-2.002-40.039-8.008-22.022 34.033-38.037 74.072-48.047 114.111 36.035 14.014 64.063 50.049 64.063 92.090s-26.025 78.076-64.063 92.090c10.010 40.039 26.025 80.078 48.047 114.111 12.012-6.006 26.025-8.008 40.039-8.008 26.025 0 50.049 8.008 70.068 28.027 30.029 30.029 36.035 74.072 20.020 110.108 34.033 22.022 74.072 38.037 114.111 48.047 14.014-38.037 50.049-64.063 92.090-64.063s78.076 26.025 92.090 64.063z" />
<glyph unicode="&#xf43d;" glyph-name="gear" horiz-adv-x="769" d="M704.688 376.918c0-42.041 28.027-78.076 64.063-92.090-10.010-40.039-26.025-80.078-48.047-114.111-12.012 6.006-26.025 8.008-40.039 8.008-26.025 0-50.049-8.008-70.068-28.027-30.029-30.029-36.035-74.072-20.020-110.108-34.033-22.022-74.072-38.037-114.111-48.047-14.014 36.035-50.049 64.063-92.090 64.063s-78.076-28.027-92.090-64.063c-40.039 10.010-80.078 26.025-114.111 48.047 16.016 36.035 10.010 80.078-20.020 110.108-20.020 20.020-44.043 28.027-70.068 28.027-14.014 0-28.027-2.002-40.039-8.008-22.022 34.033-38.037 74.072-48.047 114.111 36.035 14.014 64.063 50.049 64.063 92.090s-26.025 78.076-64.063 92.090c10.010 40.039 26.025 80.078 48.047 114.111 12.012-6.006 26.025-8.008 40.039-8.008 26.025 0 50.049 8.008 70.068 28.027 30.029 30.029 36.035 74.072 20.020 110.108 34.033 22.022 74.072 38.037 114.111 48.047 14.014-38.037 50.049-64.063 92.090-64.063s78.076 26.025 92.090 64.063c40.039-10.010 80.078-26.025 114.111-48.047-16.016-36.035-10.010-80.078 20.020-110.108 20.020-20.020 44.043-28.027 70.068-28.027 14.014 0 28.027 2.002 40.039 8.008 22.022-34.033 38.037-74.072 48.047-114.111-38.037-14.014-64.063-50.049-64.063-92.090zM386.377 216.762c88.086 0 160.156 72.070 160.156 160.156s-72.070 160.156-160.156 160.156-160.156-72.070-160.156-160.156 72.070-160.156 160.156-160.156z" />
<glyph unicode="&#xf445;" glyph-name="help-outline" horiz-adv-x="833" d="M416.407 793.325c230.225 0 416.407-186.182 416.407-416.407s-186.182-416.407-416.407-416.407-416.407 186.182-416.407 416.407 186.182 416.407 416.407 416.407zM416.407-5.455c210.205 0 382.373 172.168 382.373 382.373s-172.168 382.373-382.373 382.373-382.373-172.168-382.373-382.373 172.168-382.373 382.373-382.373zM424.414 597.133c66.065 0 120.117-42.041 120.117-110.108 0-44.043-22.022-72.070-52.051-100.098-46.045-46.045-44.043-54.053-46.045-106.104h-38.037c2.002 56.055 14.014 86.084 60.059 128.125 22.022 20.020 38.037 46.045 38.037 76.074 0 48.047-38.037 80.078-84.082 80.078-64.063 0-98.096-32.031-96.094-92.090h-38.037c0 84.082 50.049 124.121 136.133 124.121zM424.414 224.77c18.018 0 34.033-16.016 34.033-34.033s-16.016-34.033-34.033-34.033-34.033 16.016-34.033 34.033 16.016 34.033 34.033 34.033z" />
<glyph unicode="&#xf446;" glyph-name="help" horiz-adv-x="833" d="M416.407 793.325c230.225 0 416.407-186.182 416.407-416.407s-186.182-416.407-416.407-416.407-416.407 186.182-416.407 416.407 186.182 416.407 416.407 416.407zM424.414 156.703c18.018 0 34.033 16.016 34.033 34.033s-16.016 34.033-34.033 34.033-34.033-16.016-34.033-34.033 16.016-34.033 34.033-34.033zM492.481 386.928c30.029 28.027 52.051 58.057 52.051 102.1 0 68.066-54.053 108.106-120.117 108.106-86.084 0-136.133-40.039-136.133-124.121h38.037c-2.002 60.059 32.031 92.090 96.094 92.090 46.045 0 84.082-30.029 84.082-78.076 0-30.029-16.016-58.057-38.037-78.076-46.045-42.041-58.057-72.070-60.059-128.125h38.037c2.002 52.051 0 62.061 46.045 106.104z" />
<glyph unicode="&#xf447;" glyph-name="home-outline" horiz-adv-x="769" d="M384.375 665.2l320.313-256.25v-416.407h-224.219v256.25h-192.188v-256.25h-224.219v416.407zM672.657 24.574v368.36l-288.282 232.227-288.282-232.227v-368.36h160.156v256.25h256.25v-256.25h160.156zM384.375 761.293l384.375-306.299-24.023-24.023-360.352 290.283-360.352-290.283-24.023 24.023 64.063 50.049v192.188h128.125v-90.088zM160.156 581.117v84.082h-64.063v-134.131z" />
<glyph unicode="&#xf448;" glyph-name="home" horiz-adv-x="769" d="M384.375 665.2l320.313-256.25v-416.407h-224.219v256.25h-192.188v-256.25h-224.219v416.407zM384.375 761.293l384.375-306.299-24.023-24.023-360.352 290.283-360.352-290.283-24.023 24.023 64.063 50.049v192.188h128.125v-90.088z" />
<glyph unicode="&#xf44c;" glyph-name="information-outline" horiz-adv-x="833" d="M368.36 545.082c0 26.025 14.014 40.039 40.039 40.039s40.039-14.014 40.039-40.039-14.014-40.039-40.039-40.039-40.039 14.014-40.039 40.039zM448.438 200.746h32.031v-16.016h-128.125v16.016h32.031v240.235h-32.031v16.016h96.094v-256.25zM416.407 793.325c114.111 0 212.207-40.039 294.287-122.119s122.119-180.176 122.119-294.287-40.039-212.207-122.119-294.287-180.176-122.119-294.287-122.119-212.207 40.039-294.287 122.119-122.119 180.176-122.119 294.287 40.039 212.207 122.119 294.287 180.176 122.119 294.287 122.119zM416.407-5.455c106.104 0 196.192 38.037 270.264 112.109s112.109 164.16 112.109 270.264-38.037 196.192-112.109 270.264-164.16 112.109-270.264 112.109-196.192-38.037-270.264-112.109-112.109-164.16-112.109-270.264 38.037-196.192 112.109-270.264 164.16-112.109 270.264-112.109z" />
<glyph unicode="&#xf44d;" glyph-name="information" horiz-adv-x="833" d="M416.407 793.325c230.225 0 416.407-186.182 416.407-416.407s-186.182-416.407-416.407-416.407-416.407 186.182-416.407 416.407 186.182 416.407 416.407 416.407zM408.399 585.121c-22.022 0-40.039-18.018-40.039-40.039s18.018-40.039 40.039-40.039 40.039 18.018 40.039 40.039-18.018 40.039-40.039 40.039zM480.469 184.73v16.016h-32.031v256.25h-96.094v-16.016h32.031v-240.235h-32.031v-16.016h128.125z" />
<glyph unicode="&#xf453;" glyph-name="list-outline" horiz-adv-x="769" d="M736.719 729.262h-704.688v-704.688h704.688v704.688zM768.751 761.293v0-768.751h-768.751v768.751h768.751zM256.25 553.090v32.031h384.375v-32.031h-384.375zM256.25 360.902v32.031h384.375v-32.031h-384.375zM256.25 168.715v32.031h384.375v-32.031h-384.375zM128.125 569.106c0 22.022 10.010 32.031 32.031 32.031s32.031-10.010 32.031-32.031-10.010-32.031-32.031-32.031-32.031 10.010-32.031 32.031zM128.125 376.918c0 22.022 10.010 32.031 32.031 32.031s32.031-10.010 32.031-32.031-10.010-32.031-32.031-32.031-32.031 10.010-32.031 32.031zM128.125 184.73c0 22.022 10.010 32.031 32.031 32.031s32.031-10.010 32.031-32.031-10.010-32.031-32.031-32.031-32.031 10.010-32.031 32.031z" />
<glyph unicode="&#xf454;" glyph-name="list" horiz-adv-x="769" d="M0 761.293h768.751v-768.751h-768.751v768.751zM160.156 152.699c18.018 0 32.031 14.014 32.031 32.031s-14.014 32.031-32.031 32.031-32.031-14.014-32.031-32.031 14.014-32.031 32.031-32.031zM160.156 344.887c18.018 0 32.031 14.014 32.031 32.031s-14.014 32.031-32.031 32.031-32.031-14.014-32.031-32.031 14.014-32.031 32.031-32.031zM160.156 537.074c18.018 0 32.031 14.014 32.031 32.031s-14.014 32.031-32.031 32.031-32.031-14.014-32.031-32.031 14.014-32.031 32.031-32.031zM640.626 168.715v32.031h-384.375v-32.031h384.375zM640.626 360.902v32.031h-384.375v-32.031h384.375zM640.626 553.090v32.031h-384.375v-32.031h384.375z" />
<glyph unicode="&#xf455;" glyph-name="location-outline" horiz-adv-x="577" d="M288.282 793.325c-68.066 0-134.131-26.025-182.178-74.072s-74.072-114.111-74.072-182.178c0-86.084 48.047-214.209 140.137-372.364 44.043-76.074 88.086-144.141 116.113-182.178 28.027 38.037 72.070 106.104 116.113 182.178 92.090 158.154 140.137 286.28 140.137 372.364 0 68.066-26.025 134.131-74.072 182.178s-114.111 74.072-182.178 74.072zM288.282 825.356v0c160.156 0 288.282-128.125 288.282-288.282 0-224.219-288.282-608.594-288.282-608.594s-288.282 384.375-288.282 608.594c0 160.156 128.125 288.282 288.282 288.282zM288.282 665.2c70.068 0 128.125-58.057 128.125-128.125s-58.057-128.125-128.125-128.125-128.125 58.057-128.125 128.125 58.057 128.125 128.125 128.125zM288.282 442.983c52.051 0 94.092 42.041 94.092 94.092s-42.041 94.092-94.092 94.092-94.092-42.041-94.092-94.092 42.041-94.092 94.092-94.092z" />
<glyph unicode="&#xf456;" glyph-name="location" horiz-adv-x="577" d="M288.282 825.356c160.156 0 288.282-128.125 288.282-288.282 0-224.219-288.282-608.594-288.282-608.594s-288.282 384.375-288.282 608.594c0 160.156 128.125 288.282 288.282 288.282zM288.282 442.983c52.051 0 94.092 42.041 94.092 94.092s-42.041 94.092-94.092 94.092-94.092-42.041-94.092-94.092 42.041-94.092 94.092-94.092z" />
<glyph unicode="&#xf471;" glyph-name="paper-outline" horiz-adv-x="769" d="M96.094 761.293h672.657v-706.69c0-34.033-28.027-62.061-62.061-62.061h-644.63c-34.033 0-62.061 28.027-62.061 62.061v610.596h64.063v-32.031h-32.031v-578.565c0-16.016 14.014-30.029 30.029-30.029h644.63c16.016 0 30.029 14.014 30.029 30.029v674.659h-608.594v-640.626h-32.031v672.657zM192.188 633.168v32.031h256.25v-32.031h-256.25zM192.188 473.012v32.031h480.469v-32.031h-480.469zM192.188 312.856v32.031h384.375v-32.031h-384.375zM192.188 152.699v32.031h480.469v-32.031h-480.469z" />
<glyph unicode="&#xf472;" glyph-name="paper" horiz-adv-x="769" d="M96.094 761.293h672.657v-706.69c0-34.033-28.027-62.061-62.061-62.061h-644.63c-34.033 0-62.061 28.027-62.061 62.061v610.596h64.063v-576.563h32.031v672.657zM192.188 665.2v-32.031h256.25v32.031h-256.25zM192.188 344.887v-32.031h384.375v32.031h-384.375zM672.657 152.699v32.031h-480.469v-32.031h480.469zM672.657 473.012v32.031h-480.469v-32.031h480.469z" />
<glyph unicode="&#xf47d;" glyph-name="person1-outline" horiz-adv-x="641" d="M212.207 485.024v0 0zM534.522 160.707c26.025-10.010 106.104-40.039 106.104-104.102h-640.626c0 64.063 80.078 94.092 106.104 104.102s62.061 12.012 86.084 18.018c14.014 4.004 34.033 10.010 40.039 18.018s2.002 82.080 2.002 82.080-12.012 20.020-18.018 36.035-14.014 64.063-14.014 64.063-14.014 0-18.018 24.023c-4.004 26.025-12.012 34.033-12.012 54.053 0 18.018 10.010 20.020 10.010 20.020v0s-8.008 26.025-10.010 84.082c-2.002 68.066 50.049 136.133 148.145 136.133s150.147-68.066 148.145-136.133c-2.002-58.057-10.010-84.082-10.010-84.082v0s10.010-2.002 10.010-20.020c0-20.020-6.006-30.029-12.012-56.055-4.004-24.023-18.018-24.023-18.018-24.023s-8.008-46.045-14.014-62.061-18.018-36.035-18.018-36.035-4.004-74.072 2.002-82.080 26.025-14.014 40.039-18.018c24.023-6.006 60.059-8.008 86.084-18.018zM320.313 88.637v0h274.268c-4.004 6.006-8.008 12.012-16.016 16.016-14.014 10.010-32.031 18.018-54.053 26.025-14.014 4.004-34.033 8.008-52.051 10.010-12.012 2.002-20.020 4.004-30.029 6.006-6.006 2.002-42.041 10.010-58.057 30.029-8.008 10.010-12.012 24.023-12.012 64.063 0 20.020 2.002 40.039 2.002 40.039v8.008l4.004 8.008c2.002 4.004 12.012 18.018 16.016 30.029 4.004 10.010 10.010 38.037 12.012 56.055 0 0 0-2.002 2.002 8.008s16.016 8.008 18.018 16.016 6.006 14.014 10.010 36.035-10.010 24.023-10.010 34.033c0 8.008 2.002 10.010 2.002 10.010v0c0 2.002 8.008 28.027 8.008 76.074 0 26.025-10.010 52.051-28.027 70.068-22.022 22.022-50.049 32.031-88.086 32.031-36.035 0-68.066-10.010-90.088-32.031-18.018-18.018-26.025-44.043-26.025-70.068 2.002-48.047 8.008-74.072 8.008-76.074v0s2.002-6.006 0-12.012c-2.002-10.010-12.012-10.010-8.008-32.031s8.008-28.027 10.010-36.035 16.016-6.006 18.018-16.016 2.002-8.008 2.002-8.008c2.002-18.018 8.008-46.045 12.012-56.055 4.004-12.012 12.012-26.025 16.016-30.029l4.004-8.008v-8.008s2.002-20.020 2.002-40.039c0-40.039-4.004-54.053-12.012-64.063-16.016-20.020-52.051-28.027-58.057-30.029-10.010-2.002-20.020-4.004-32.031-6.006-18.018-2.002-36.035-6.006-50.049-10.010-22.022-8.008-40.039-16.016-54.053-26.025-8.008-4.004-12.012-10.010-16.016-16.016h274.268z" />
<glyph unicode="&#xf47e;" glyph-name="person1" horiz-adv-x="641" d="M534.522 160.707c26.025-10.010 106.104-40.039 106.104-104.102h-640.626c0 64.063 80.078 94.092 106.104 104.102s62.061 12.012 86.084 18.018c14.014 4.004 34.033 10.010 40.039 18.018s2.002 82.080 2.002 82.080-12.012 20.020-18.018 36.035-14.014 64.063-14.014 64.063-14.014 0-18.018 24.023c-4.004 26.025-12.012 34.033-12.012 54.053 0 18.018 10.010 20.020 10.010 20.020v0s-8.008 26.025-10.010 84.082c-2.002 68.066 50.049 136.133 148.145 136.133s150.147-68.066 148.145-136.133c-2.002-58.057-10.010-84.082-10.010-84.082v0s10.010-2.002 10.010-20.020c0-20.020-6.006-30.029-12.012-56.055-4.004-24.023-18.018-24.023-18.018-24.023s-8.008-46.045-14.014-62.061-18.018-36.035-18.018-36.035-4.004-74.072 2.002-82.080 26.025-14.014 40.039-18.018c24.023-6.006 60.059-8.008 86.084-18.018z" />
<glyph unicode="&#xf4b2;" glyph-name="star-outline" d="M896.876 475.014l-280.274-196.192 108.106-318.311-276.27 198.194-276.27-198.194 108.106 318.311-280.274 196.192h342.334l106.104 318.311 106.104-318.311h342.334zM662.647 46.596l-86.084 244.239 216.211 150.147h-262.256l-82.080 246.24-82.080-246.24h-262.256l216.211-150.147-86.084-244.239 214.209 152.149z" />
<glyph unicode="&#xf4b3;" glyph-name="star" d="M896.876 475.014l-280.274-196.192 108.106-318.311-276.27 198.194-276.27-198.194 108.106 318.311-280.274 196.192h342.334l106.104 318.311 106.104-318.311h342.334z" />
</font>
</defs>
</svg>
